<?xml version="1.0" standalone="no"?>
<!DOCTYPE svg PUBLIC "-//W3C//DTD SVG 20010904//EN"
 "http://www.w3.org/TR/2001/REC-SVG-20010904/DTD/svg10.dtd">
<svg version="1.0" xmlns="http://www.w3.org/2000/svg"
 width="1280.000000pt" height="1280.000000pt" viewBox="0 0 1280.000000 1280.000000"
 preserveAspectRatio="xMidYMid meet">

<g transform="translate(0.000000,1280.000000) scale(0.100000,-0.100000)"
fill="#000000" stroke="none">
<path d="M6035 12470 c-826 -53 -1600 -257 -2330 -615 -1454 -713 -2561 -1971
-3087 -3505 -161 -473 -258 -937 -310 -1495 -16 -169 -16 -781 0 -950 81 -859
280 -1564 647 -2290 593 -1172 1563 -2128 2750 -2710 635 -311 1263 -495 2005
-587 210 -26 941 -37 1165 -18 1199 102 2314 534 3250 1259 368 286 734 646
1031 1016 1102 1373 1555 3189 1229 4926 -184 980 -613 1916 -1229 2684 -297
370 -663 730 -1031 1016 -921 714 -2000 1138 -3190 1254 -191 19 -704 27 -900
15z m746 -1765 c828 -83 1584 -385 2229 -894 350 -276 689 -636 896 -952 177
-269 384 -656 474 -884 271 -684 358 -1540 230 -2256 -48 -268 -165 -654 -285
-939 -190 -451 -498 -923 -827 -1265 -357 -372 -749 -662 -1188 -881 -430
-214 -847 -339 -1373 -410 -155 -21 -769 -31 -920 -14 -392 42 -851 150 -1147
268 -160 64 -519 244 -675 338 -511 310 -1016 791 -1323 1264 -241 370 -395
686 -515 1055 -256 787 -282 1538 -81 2332 132 524 312 926 620 1388 156 234
266 367 484 586 399 399 707 621 1182 849 484 232 1053 386 1558 423 139 10
523 5 661 -8z"/>
<path d="M6270 10393 c-346 -23 -713 -89 -996 -177 -493 -153 -863 -346 -1274
-664 -376 -290 -725 -704 -1005 -1192 -246 -428 -373 -789 -464 -1313 -50
-287 -67 -672 -41 -934 46 -475 216 -1056 418 -1433 304 -567 631 -968 1074
-1312 560 -437 1265 -727 1978 -815 222 -27 708 -25 926 5 581 78 1073 247
1544 529 552 331 979 766 1332 1358 295 495 448 920 535 1485 35 227 43 591
18 830 -71 704 -276 1280 -661 1860 -328 494 -776 932 -1244 1215 -375 227
-795 389 -1241 480 -305 62 -671 94 -899 78z m408 -298 c269 -27 552 -81 795
-151 377 -108 810 -340 1169 -627 621 -495 1100 -1217 1287 -1938 114 -437
142 -693 122 -1109 -15 -304 -51 -521 -143 -844 -87 -309 -250 -669 -355 -786
-88 -96 -169 -124 -239 -81 -31 19 -74 91 -74 125 0 10 39 100 86 200 123 259
179 391 234 556 128 383 178 705 167 1084 -12 446 -97 828 -271 1221 -391 886
-1130 1569 -2021 1867 -156 52 -364 101 -545 130 -129 20 -182 22 -470 22
-351 0 -456 -10 -730 -71 -419 -92 -904 -316 -1258 -579 -130 -97 -467 -426
-593 -579 -262 -318 -508 -788 -628 -1198 -91 -311 -125 -544 -125 -867 -1
-759 231 -1443 682 -2015 403 -510 883 -870 1452 -1088 403 -155 744 -217
1185 -217 547 0 1015 109 1484 344 262 132 459 265 707 477 190 162 279 217
368 226 46 5 54 2 76 -22 21 -23 25 -38 29 -105 4 -101 -4 -114 -153 -257
-508 -489 -1246 -853 -1931 -953 -209 -30 -557 -44 -810 -31 -484 24 -939 146
-1395 377 -407 204 -749 464 -1078 817 -326 350 -619 840 -757 1269 -50 153
-120 445 -149 619 -118 693 18 1528 353 2174 280 541 693 1019 1178 1363 210
149 517 315 752 406 498 195 1127 289 1599 241z m-177 -865 c330 -19 590 -87
877 -230 253 -126 409 -238 612 -440 194 -193 338 -407 401 -595 20 -59 24
-90 24 -195 0 -116 -2 -128 -27 -175 -32 -60 -102 -129 -183 -181 -56 -36 -66
-39 -145 -42 -100 -4 -149 11 -273 83 -93 55 -169 130 -255 251 -210 297 -490
508 -797 600 -84 25 -106 27 -315 31 -262 5 -321 -3 -455 -66 -103 -48 -179
-106 -271 -204 -145 -155 -195 -324 -144 -488 25 -83 67 -148 144 -224 176
-175 309 -215 1041 -320 517 -74 700 -123 945 -252 181 -96 293 -184 426 -335
137 -156 223 -321 286 -555 l32 -118 0 -285 c1 -330 -2 -346 -61 -335 -80 15
-371 153 -540 256 -36 22 -134 94 -217 158 -501 391 -596 435 -1225 561 -305
61 -570 142 -756 229 -321 151 -664 461 -821 743 -129 230 -216 596 -201 843
14 234 169 538 386 756 242 241 567 401 1003 494 201 43 283 48 509 35z
m-2045 -1490 c-24 -122 -30 -263 -17 -368 13 -107 86 -353 136 -459 58 -124
112 -191 342 -424 123 -125 223 -230 223 -233 0 -10 -119 52 -180 94 -83 57
-301 260 -355 332 -58 78 -153 271 -195 398 -57 172 -63 472 -11 621 25 72 63
147 68 132 2 -6 -3 -48 -11 -93z m-587 -1085 c18 -13 48 -45 67 -71 44 -61 46
-115 7 -186 -73 -133 -245 -159 -344 -51 -43 45 -63 94 -63 150 0 42 6 60 29
94 56 79 107 101 210 92 40 -3 71 -12 94 -28z m5281 8 c59 -24 118 -93 134
-156 23 -95 -80 -209 -202 -224 -117 -13 -251 106 -240 212 17 149 161 228
308 168z m-4235 -990 c131 -46 255 -149 328 -271 178 -300 409 -516 665 -623
236 -98 599 -136 802 -84 144 36 359 159 434 246 61 72 118 193 124 265 2 35
9 64 14 64 15 0 41 -16 323 -195 149 -94 313 -197 367 -228 130 -77 218 -144
218 -167 0 -41 -208 -270 -353 -388 -293 -239 -676 -397 -1076 -442 -139 -16
-465 -13 -608 5 -221 27 -541 120 -728 210 -111 54 -336 188 -430 257 -104 76
-340 319 -417 428 -78 109 -170 284 -194 366 -12 42 -15 85 -12 168 4 135 22
178 114 276 70 74 141 118 212 130 58 10 164 2 217 -17z m4223 -169 c99 -69
52 -263 -127 -531 -65 -97 -110 -143 -142 -143 -25 0 -99 67 -99 91 0 33 41
131 140 334 53 110 111 215 128 233 33 35 65 41 100 16z"/>
</g>
</svg>
