<?xml version="1.0" standalone="no"?>
<!DOCTYPE svg PUBLIC "-//W3C//DTD SVG 20010904//EN"
 "http://www.w3.org/TR/2001/REC-SVG-20010904/DTD/svg10.dtd">
<svg version="1.0" xmlns="http://www.w3.org/2000/svg"
 width="1024.000000pt" height="1024.000000pt" viewBox="0 0 1024.000000 1024.000000"
 preserveAspectRatio="xMidYMid meet">

<g transform="translate(0.000000,1024.000000) scale(0.100000,-0.100000)"
fill="#000000" stroke="none">
<path d="M0 5120 l0 -5120 5120 0 5120 0 0 5120 0 5120 -5120 0 -5120 0 0
-5120z m5365 3450 c547 -46 1025 -198 1487 -474 387 -231 768 -578 1018 -926
126 -176 332 -542 411 -730 222 -531 303 -1163 224 -1760 -49 -370 -219 -864
-415 -1205 -119 -208 -314 -477 -445 -615 -288 -304 -574 -529 -890 -699 -395
-212 -783 -333 -1250 -387 -170 -20 -565 -23 -710 -5 -373 45 -719 131 -975
244 -127 56 -346 168 -450 230 -402 240 -804 617 -1047 982 -227 340 -359 615
-464 964 -174 577 -192 1142 -55 1720 97 409 222 713 429 1046 175 281 297
435 516 647 293 285 562 472 926 643 532 252 1148 370 1690 325z"/>
<path d="M4950 8310 c-383 -36 -640 -93 -949 -212 -312 -119 -533 -246 -816
-467 -139 -109 -231 -196 -353 -335 -222 -253 -339 -424 -525 -767 -81 -150
-158 -355 -212 -563 -167 -652 -154 -1143 47 -1781 75 -238 172 -441 343 -716
365 -588 932 -1033 1631 -1278 139 -49 407 -115 556 -136 794 -113 1593 74
2244 525 414 287 724 647 1001 1165 190 354 305 758 344 1200 34 394 -56 956
-216 1346 -184 449 -439 826 -786 1164 -339 329 -709 552 -1169 705 -362 120
-818 180 -1140 150z m360 -230 c316 -28 655 -104 880 -197 347 -143 671 -358
947 -626 360 -351 626 -776 776 -1242 38 -119 98 -385 119 -530 20 -138 17
-531 -6 -685 -53 -369 -165 -725 -312 -987 -85 -153 -178 -212 -263 -168 -26
13 -61 75 -61 108 0 6 40 93 89 192 244 493 339 948 297 1420 -32 360 -105
621 -261 940 -341 697 -961 1219 -1695 1424 -415 115 -883 121 -1315 15 -365
-89 -773 -291 -1042 -517 -120 -100 -361 -351 -441 -460 -397 -534 -591 -1150
-552 -1747 44 -686 297 -1239 794 -1736 244 -243 521 -430 828 -558 358 -148
659 -209 1038 -209 650 -1 1262 231 1750 662 139 123 220 173 283 179 49 4 56
2 75 -23 26 -33 30 -121 8 -163 -22 -41 -188 -200 -301 -288 -312 -242 -680
-429 -1043 -529 -167 -46 -252 -62 -422 -81 -178 -20 -568 -20 -715 0 -466 63
-861 211 -1255 471 -228 150 -497 395 -673 615 -182 226 -365 546 -456 796
-53 148 -113 384 -146 574 -99 584 30 1300 330 1825 150 263 339 513 534 704
335 329 779 589 1205 706 273 74 419 100 665 114 187 12 215 12 341 1z m29
-706 c268 -39 469 -109 695 -243 133 -78 238 -162 362 -285 220 -221 344 -449
344 -633 0 -127 -55 -212 -186 -289 -41 -25 -60 -29 -119 -29 -58 0 -82 5
-137 32 -130 61 -198 123 -292 265 -105 160 -304 325 -486 404 -148 64 -226
79 -415 79 -189 0 -230 -8 -365 -72 -95 -46 -230 -177 -273 -265 -78 -162 -53
-309 75 -443 82 -87 184 -145 309 -176 106 -26 378 -72 594 -99 181 -23 392
-67 503 -104 85 -29 236 -105 324 -163 38 -25 109 -85 158 -134 148 -149 228
-290 282 -498 28 -108 31 -130 32 -301 1 -226 -7 -300 -34 -300 -68 0 -428
178 -535 265 -128 103 -335 259 -402 303 -143 92 -334 153 -670 216 -179 33
-396 95 -537 153 -310 127 -624 410 -752 678 -82 174 -134 393 -134 571 0 88
5 118 31 201 62 198 200 401 358 528 228 183 501 292 871 348 68 11 303 5 399
-9z m-1763 -1126 c-25 -116 -30 -157 -30 -248 0 -119 8 -163 64 -341 59 -189
115 -269 338 -486 97 -95 173 -173 169 -173 -13 0 -109 51 -153 81 -61 42
-249 218 -282 265 -55 77 -111 189 -148 299 -35 102 -38 120 -42 255 -5 155 5
218 49 320 22 51 43 68 35 28z m-497 -912 c42 -22 89 -81 97 -121 17 -91 -76
-195 -175 -195 -104 0 -197 116 -170 212 10 39 58 94 93 108 34 14 125 11 155
-4z m4249 -7 c50 -25 102 -96 102 -140 0 -72 -50 -133 -127 -155 -64 -19 -98
-13 -153 27 -74 54 -95 113 -66 183 39 94 147 131 244 85z m-3344 -813 c92
-45 163 -108 201 -178 134 -248 348 -446 573 -528 185 -68 415 -92 582 -61
126 24 306 121 374 201 14 17 43 61 63 98 32 57 38 76 37 124 -1 69 -30 81
261 -107 121 -78 258 -163 304 -189 87 -48 169 -109 178 -132 2 -7 -41 -65
-97 -128 -247 -279 -550 -446 -943 -521 -201 -38 -497 -36 -704 5 -131 26
-314 81 -421 127 -107 46 -307 163 -402 235 -202 153 -379 372 -462 573 -29
71 -33 91 -33 175 0 76 4 104 21 140 42 90 144 180 227 201 18 4 63 7 100 5
54 -3 83 -11 141 -40z m3338 -123 c38 -40 41 -68 19 -156 -33 -127 -194 -377
-244 -377 -8 0 -32 15 -52 34 -45 43 -47 37 67 281 88 189 126 245 166 245 10
0 30 -12 44 -27z"/>
</g>
</svg>
